<svg width="55" height="90" viewBox="0 0 55 90" fill="none" xmlns="http://www.w3.org/2000/svg">
  <g clip-path="url(#clip0_1_10561)">
    <path d="M7.64025 4.84043C6.84421 4.84043 6.06836 5.12072 5.5201 5.66786C4.97072 6.21275 4.69043 6.9942 4.69043 7.78799V81.3952C4.69043 82.189 4.97072 82.9649 5.5201 83.5143C6.06836 84.0636 6.84421 84.3438 7.64025 84.3438H47.0158C47.8096 84.3438 48.5922 84.0636 49.1349 83.5143C49.6853 82.9649 49.9646 82.189 49.9646 81.3952V7.78799C49.9646 6.9942 49.6842 6.21275 49.1349 5.66786C48.5922 5.11959 47.8096 4.84043 47.0158 4.84043H40.9369C40.4581 4.84043 40.0321 5.12633 39.8515 5.56919L38.9457 7.78799C38.653 8.51339 38.4209 8.8688 38.051 9.10872C37.6899 9.35426 37.0475 9.55832 35.7861 9.55832H18.8676C17.6074 9.55832 16.965 9.35315 16.6029 9.10872C16.2352 8.86992 16.0008 8.5145 15.7093 7.78799L14.8045 5.56919C14.6274 5.1308 14.2013 4.84043 13.7293 4.84043H7.64025Z" fill="#242D37"/>
    <path d="M7.46252 2.32419H47.1902C50.0581 2.32419 52.3217 4.60017 52.3217 7.46252V81.7222C52.3217 84.5834 50.057 86.8617 47.1902 86.8617H7.46252C4.59681 86.8617 2.32979 84.5834 2.32979 81.7222V7.46252C2.33092 4.6013 4.59681 2.32419 7.46252 2.32419ZM7.46252 0C3.34782 0 0 3.34782 0 7.46252V81.7222C0 85.8392 3.34782 89.1848 7.46252 89.1848H47.1902C51.3071 89.1848 54.6582 85.8392 54.6582 81.7222V7.46252C54.6582 3.34782 51.3071 0 47.1902 0H7.46252Z" fill="#16202C"/>
    <path d="M23.569 4.84043C22.9199 4.84043 22.4019 5.3584 22.4019 6.00756C22.4019 6.65559 22.9199 7.17582 23.569 7.17582H31.674C32.3164 7.17582 32.8423 6.65559 32.8423 6.00756C32.8423 5.3584 32.3164 4.84043 31.674 4.84043H23.569Z" fill="#25272E"/>
  </g>
  <defs>
    <clipPath id="clip0_1_10561">
      <rect width="54.7" height="89.1848" fill="white"/>
    </clipPath>
  </defs>
</svg>